<svg width="762" height="324" viewBox="0 0 762 324" fill="none" xmlns="http://www.w3.org/2000/svg">
<g clip-path="url(#clip0_601_5459)">
<path d="M213.216 246.442L237.118 246.391C242.454 246.385 247.758 246.154 252.929 246.784C284.38 250.71 283.196 272.366 281.285 298.304C280.09 314.529 260.592 324.844 245.648 321.899C243.018 321.381 240.408 309.733 239.59 306.843C246.502 307.247 253.911 307.1 258.397 301.019C262.089 295.779 260.246 287.876 260.643 281.843C262.163 258.772 248.968 263.689 233.782 262.356C233.234 282.184 234.006 302.631 233.547 322.598C227.065 322.359 219.201 322.445 212.678 322.513C211.969 302.372 212.747 268.612 212.668 247.214C212.882 246.912 213.065 246.655 213.216 246.442Z" fill="#CED3D4"/>
<path d="M151.642 81.1727C157.582 80.8223 166.39 81.0414 172.342 81.1481C171.939 91.7081 172.276 104.788 172.266 115.542C178.354 115.657 189.209 117.12 193.981 112.732C195.922 110.948 196.979 108.167 197.006 105.517C197.109 95.0779 185.378 96.2512 178.149 96.3047C179.692 91.7873 181.395 85.3393 183.178 81.2508C194.336 79.899 208.943 83.1781 214.848 93.7295C217.821 99.0909 218.52 105.42 216.789 111.301C214.504 119.176 209.406 123.453 202.452 127.249C203.397 129.346 203.857 130.055 205.18 131.948C207.251 135.555 210.477 140.085 212.793 143.697C215.065 147.24 218.588 153.494 221.192 156.421C214.387 156.417 203.866 156.952 197.461 156.272C195.67 152.433 192.657 147.926 190.371 144.201C187.594 139.678 184.761 134.843 181.854 130.434C178.75 130.171 175.836 130.503 172.343 130.164C172.104 138.729 172.341 147.73 172.187 156.42C165.635 156.673 157.818 156.53 151.208 156.473C151.22 148.884 150.637 82.4397 151.642 81.1727Z" fill="#58585B"/>
<path d="M139.609 246.707C146.256 246.556 153.892 246.525 160.492 246.758C159.97 257.348 160.523 270.664 160.377 281.59C170.947 281.766 192.023 283.32 183.294 265.173C177.797 261.374 172.986 261.381 166.444 261.913C167.555 257.66 170.138 250.98 171.744 246.792C178.804 246.336 185.762 246.945 192.293 249.935C211.47 258.717 209.845 285.579 190.122 292.979C191.263 294.425 191.809 295.152 192.758 296.769C196.495 302.749 200.483 308.576 204.137 314.608C205.743 317.26 207.268 319.892 209.227 322.306C205.664 322.759 189.215 322.592 185.799 322.225C180.691 313.283 175.373 304.78 170.019 295.991C166.714 295.784 164.231 296.191 160.678 295.599C160.047 302.966 160.43 314.687 160.309 322.566L139.693 322.468C139.167 316.349 139.534 303.123 139.531 296.441L139.609 246.707Z" fill="#CED3D4"/>
<path d="M577.732 164.536C584.522 164.697 591.916 164.527 598.78 164.572C598.903 176.155 598.918 187.739 598.829 199.323C603.308 199.272 614.225 200.311 617.946 198.089C628.177 191.673 623.608 180.626 612.484 179.775C611.929 179.733 605.031 179.684 605.31 179.747C604.547 178.067 608.729 166.978 609.529 164.61C621.849 164.194 636.862 166.689 642.071 179.613C644.474 185.665 644.363 192.426 641.758 198.394C639.187 204.364 634.413 208.18 628.486 210.513C629.182 211.949 630.027 213.406 630.808 214.806C632.735 217.794 646.167 237.811 646.375 239.579C645.211 240.629 627.363 240.261 624.1 240.255C620.2 232.911 612.8 221.28 608.149 214.329C605.801 213.988 601.712 214.115 598.907 213.9C598.754 222.627 598.899 231.352 598.721 240.144C591.744 240.377 584.601 240.164 577.591 240.259L577.732 164.536Z" fill="#CED3D4"/>
<path d="M311.542 164.481C316.736 164.841 326.751 164.547 332.238 164.581L332.245 197.965C332.242 205.028 330.824 216.276 335.772 221.551C340.012 226.34 351.714 226.36 356.132 222.068C361.47 216.881 359.942 203.923 359.932 196.576L359.956 164.543C366.806 164.577 373.659 164.575 380.509 164.538C380.434 169.466 380.528 174.629 380.539 179.576C380.472 190.331 380.699 201.174 380.542 211.926C380.349 219.911 377.96 226.745 372.074 232.399C358.055 245.869 320.972 245.017 313.441 224.614C310.649 217.048 311.328 203.192 311.379 194.485C311.435 184.917 311.102 174.091 311.542 164.481Z" fill="#CED3D4"/>
<path d="M501.666 164.494C508.568 164.568 515.47 164.591 522.372 164.562C522.461 175.749 522.48 186.936 522.42 198.123C522.413 204.977 521.122 216.058 525.605 221.228C529.821 226.242 541.199 226.483 545.935 222.317C551.725 217.226 549.957 206.358 550.099 199.121C550.318 187.669 549.805 176.087 550.255 164.57C556.993 164.52 563.728 164.515 570.466 164.555L570.562 179.949L570.559 210.848C570.477 219.082 568.654 226.112 562.622 232.03C549.961 244.448 520.902 244.664 508.416 232.03C499.72 223.229 501.51 208.25 501.525 196.72C501.503 185.978 501.551 175.236 501.666 164.494Z" fill="#CED3D4"/>
<path d="M269.605 163.087C270.58 163.044 271.556 163.034 272.532 163.054C283.844 163.232 297.791 166.963 303.453 177.858C305.749 182.277 306.001 186.945 305.907 191.822C300.19 192.2 290.895 191.6 286.193 192.219C285.825 184.547 283.66 180.306 275.528 179.289C252.83 176.68 259.261 196.12 258.174 210.629C257.106 224.868 271.545 228.518 281.99 222.622C285.186 220.818 285.931 216.021 286.29 212.507L292.726 212.415C297.191 212.389 301.657 212.445 306.12 212.583C305.739 219.651 305.434 225.057 300.645 230.757C294.822 237.689 284.863 240.602 276.104 241.121C266.19 241.709 253.391 239.645 245.707 232.852C239.866 227.69 237.798 222.096 237.229 214.392C236.932 210.376 237.132 205.602 237.089 201.584C236.98 191.568 236.574 181.819 243.637 173.755C250.148 166.322 260.056 163.686 269.605 163.087Z" fill="#CED3D4"/>
<path d="M89.8524 246.424C94.6934 246.317 102.555 246.267 107.196 246.694C112.79 261.405 118.769 276.29 124.246 291.043C127.394 299.522 134.004 314.148 135.906 322.504C129.679 322.406 123.204 322.949 117.04 322.294C114.522 322.027 112.687 314.33 111.866 311.943C108.46 301.959 104.976 292.002 101.413 282.073C100.152 278.464 97.4344 269.487 95.6288 266.681L95.5283 266.528C95.0561 268.457 94.4873 270.018 93.8253 271.884C91.1639 277.507 89.3996 286.567 86.0974 292.917C90.4864 292.856 95.3073 293.02 99.7279 293.079C98.1127 298.821 96.8402 302.642 94.6979 308.164C91.0564 308.444 84.7643 308.516 81.1694 308.2C79.3898 312.967 77.6872 317.763 76.0623 322.585C70.2342 322.523 60.8677 322.147 55.3142 322.623L73.8132 275.074C77.1588 266.434 81.7781 255.4 84.4882 246.741C86.1283 246.579 88.1788 246.516 89.8524 246.424Z" fill="#CED3D4"/>
<path d="M359.75 82.4495L422.188 82.4748C421.976 86.7199 422.028 93.6477 422.143 97.8772C412.909 97.5104 402.68 98.1108 393.33 97.9055C389.364 97.8184 384.918 98.145 381.011 97.6871C380.587 111.966 380.966 127.391 380.892 141.804C386.168 141.883 391.529 141.85 396.813 141.866C405.356 141.795 413.898 141.842 422.437 142.006C422.229 146.927 422.341 152.689 422.329 157.673C416.931 158.038 410.65 157.767 405.158 157.738L376.725 157.709C371.355 157.706 364.963 157.535 359.659 157.788C359.339 133.422 359.332 106.796 359.75 82.4495Z" fill="#58585B"/>
<path d="M151.38 164.543C171.314 164.493 192.686 164.961 212.451 164.529C212.515 169.756 212.67 175.266 212.427 180.462C205.95 180.987 196.81 180.548 190.126 180.67C186.241 180.741 175.787 181.055 172.39 180.501C171.837 193.762 172.279 210.763 172.264 224.348C178.156 224.413 184.049 224.446 189.942 224.446L212.637 224.468C212.688 229.691 212.768 234.856 212.576 240.08C193.101 241.12 170.642 239.305 151.121 240.225C151.824 219.409 150.824 198.075 151.172 177.213C151.241 173.096 150.974 168.628 151.38 164.543Z" fill="#CED3D4"/>
<path d="M651.019 164.521C670.534 165.073 692.281 164.469 712.098 164.572C712.169 169.889 712.161 175.206 712.072 180.523C705.345 180.895 696.951 180.589 690.079 180.685C685.673 180.746 675.918 180.946 672.03 180.461C671.159 193.539 671.992 210.74 671.769 224.321C681.209 224.599 691.225 224.456 700.709 224.463C701.542 225.07 707.763 224.939 709.985 225.341C710.632 229.632 711.142 234.79 709.817 239.005L672.536 239.028C666.627 239.03 660.689 239.112 654.788 238.935C652.072 238.853 651.395 236.232 650.918 234.132C650.874 211.242 650.565 187.339 651.019 164.521Z" fill="#CED3D4"/>
<path d="M83.8961 81.3072C91.1608 81.0197 99.1908 81.1934 106.525 81.1945L144.336 81.2782L144.316 96.5888C132.314 96.9667 120.088 96.4147 108.063 96.6892C103.987 96.7822 99.839 96.8496 95.7663 96.7666C92.5415 106.544 89.2093 116.285 85.7702 125.989C90.4167 125.787 96.4196 125.953 101.101 126.112C98.6558 131.064 98.2231 135.852 95.5181 141.325C92.4005 141.659 82.8231 141.686 79.7241 141.493C77.4548 144.894 75.3657 151.868 73.0681 156.477C67.7553 156.746 60.0706 156.008 55.1768 156.646C57.6064 150.824 59.6211 144.831 61.8956 138.948L83.8961 81.3072Z" fill="#58585B"/>
<path d="M224.125 81.2237L282.437 81.2817L282.325 96.8486C273.276 97.2344 263.963 96.7545 254.893 97.006C251.778 97.0923 248.344 97.0744 245.242 96.8672C244.891 104.342 245.082 113.309 245.083 120.898C245.171 132.779 245.139 144.661 244.986 156.542C242.04 156.66 226.745 156.979 224.664 156.466C223.695 152.282 224.034 135.691 224.033 130.598C223.979 114.14 224.01 97.6815 224.125 81.2237Z" fill="#58585B"/>
<path d="M72.6225 164.542L92.9952 164.582C93.0863 174.163 93.0785 183.746 92.9721 193.327C101.026 193.505 109.02 193.328 117.087 193.65C111.122 213.52 113.574 210.184 93.0383 210L93.0231 216.031C93.0729 224.057 93.0424 232.083 92.9323 240.109C86.087 240.158 79.2409 240.152 72.3955 240.09C72.8636 233.577 72.4342 224.037 72.5105 217.305C72.7095 199.798 72.1961 182.046 72.6225 164.542Z" fill="#CED3D4"/>
<path d="M387.608 164.496C394.16 164.648 402.122 164.718 408.641 164.516C408.783 178.757 408.823 192.999 408.764 207.241C408.76 217.847 408.987 229.58 408.589 240.104C401.747 240.369 394.06 239.902 387.444 240.368L387.452 191.83C387.448 183.856 387.083 172.193 387.608 164.496Z" fill="#CED3D4"/>
<path d="M123.415 164.566C130.314 164.501 137.434 164.717 144.285 164.52C144.583 186.599 144.138 208.751 144.365 230.836C144.396 233.864 144.412 237.002 144.163 240.018C137.22 240.351 130.121 240.117 123.143 240.276C123.697 222.803 122.879 204.244 123.245 186.684C123.38 180.236 122.736 170.607 123.415 164.566Z" fill="#CED3D4"/>
<path d="M238.449 19.7374L239.059 19.8902C239.96 22.3697 239.331 68.2078 239.279 74.5476C232.636 74.4163 225.781 74.5059 219.123 74.5108L218.375 74.3147C217.934 73.3115 218.162 30.5314 218.178 26.351C224.325 24.9057 231.655 21.3191 238.449 19.7374Z" fill="#58585B"/>
<path d="M428.015 164.48C449.844 165.135 473.612 164.35 495.754 164.606C495.791 169.32 495.895 174.582 495.631 179.32C495.587 180.125 495.434 180.075 494.876 180.473C488.793 180.91 480.12 180.613 473.865 180.581C463.726 180.562 453.584 180.595 443.445 180.68C439.266 180.7 431.587 180.404 427.892 180.818C427.84 175.63 427.68 169.585 428.015 164.48Z" fill="#CED3D4"/>
<path d="M331.483 101.932C332.104 101.903 331.8 101.844 332.391 102.216C332.486 120.298 332.46 138.381 332.314 156.462C325.503 156.577 318.691 156.568 311.881 156.435L311.762 156.352C310.851 155.162 311.269 114.252 311.296 108.965C315.028 106.981 326.863 103.422 331.483 101.932Z" fill="#58585B"/>
<path d="M471.041 185.285L471.971 185.202L472.474 185.628C472.775 192.89 472.6 201.171 472.593 208.504C472.645 219.068 472.581 229.633 472.403 240.195C465.921 240.243 459.57 240.333 453.089 240.108L452.039 240.12C450.916 238.39 451.615 197.951 451.69 192.13C456.37 190.217 467.529 187.094 471.041 185.285Z" fill="#CED3D4"/>
<path d="M43.33 184.075L44.2777 184.022C45.2663 185.224 44.5392 232.844 44.5009 238.963C38.0704 239.088 31.6378 239.076 25.2078 238.927L24.1548 238.915C23.4193 237.73 23.7716 195.817 23.8815 190.896C28.9454 188.548 37.5886 186.236 43.33 184.075Z" fill="#CED3D4"/>
<path d="M471.476 101.965L472.276 101.911C472.86 102.907 472.537 151.85 472.403 156.485C465.951 156.523 459.15 156.67 452.732 156.389L452.002 156.299C451.344 155.305 451.638 113.38 451.641 108.742C457.825 106.242 465.066 104.038 471.476 101.965Z" fill="#58585B"/>
<path d="M427.922 82.4808C449.535 82.0623 474.278 82.1188 495.892 82.5302C495.553 85.8327 495.787 93.8528 495.81 97.3744C494.489 98.7648 478.802 98.1351 475.625 98.1198L443.441 98.183C438.596 98.1998 432.573 97.9669 427.903 98.1897C427.881 92.9533 427.888 87.7168 427.922 82.4808Z" fill="#58585B"/>
<path d="M298.21 82.3936L353.941 82.4698C353.772 87.4526 353.865 93.035 353.836 98.0661C350.761 98.1509 347.445 98.12 344.351 98.1427L288.029 98.0679C288.086 92.9435 287.906 87.614 288.136 82.5357C291.353 82.3798 294.961 82.4241 298.21 82.3936Z" fill="#58585B"/>
<path d="M49.8162 39.8962L51.1575 39.6704C54.3554 41.117 69.1955 70.2543 73.8009 75.5596L57.5779 75.7638C55.1941 75.8278 52.5401 75.6917 50.1347 75.618C48.1958 70.8588 44.1644 64.0734 41.6507 59.4995C39.473 55.5363 36.1662 48.9808 33.5742 45.5708C38.6009 43.7369 44.698 41.0962 49.8162 39.8962Z" fill="#58585B"/>
<path d="M101.095 110.57C113.412 110.216 126.721 110.464 139.105 110.492C139.122 114.665 139.379 122.497 138.954 126.382C128.292 126.534 116.298 126.608 105.69 126.327C104.896 123.596 100.525 112.51 101.095 110.57Z" fill="#58585B"/>
<path d="M183.769 59.863C192.847 59.6041 202.693 59.8169 211.849 59.812L211.689 75.8004C210.136 75.6527 207.895 75.7368 206.286 75.7487C200.185 75.7208 183.31 75.2591 178.058 75.9175C179.302 72.2985 182.058 62.2969 183.769 59.863Z" fill="#58585B"/>
<path d="M110.904 140.972C121.82 140.672 133.371 140.861 144.333 140.872C144.4 146.05 144.369 151.227 144.24 156.403C134.946 156.604 125.649 156.642 116.354 156.515C114.045 151.562 112.961 146.31 110.904 140.972Z" fill="#58585B"/>
<path d="M419.338 224.429C427.632 224.681 437.644 224.517 445.986 224.47C446.019 229.709 445.952 234.948 445.792 240.185L441.402 240.233C435.181 240.241 419.93 239.74 414.471 240.255C415.342 236.083 417.958 228.874 419.338 224.429Z" fill="#CED3D4"/>
<path d="M386.306 110.742C395.328 111.087 406.517 110.746 415.792 110.801C415.826 115.942 415.796 121.083 415.703 126.223C414.122 126.681 394.748 126.366 391.143 126.614C389.911 121.172 387.969 116.096 386.306 110.742Z" fill="#58585B"/>
<path d="M677.536 194.18C686.957 194.097 696.378 194.076 705.795 194.117C705.843 199.272 705.825 204.427 705.732 209.58C700.262 210.241 688.654 209.605 682.463 209.795C680.84 204.477 679.103 199.643 677.536 194.18Z" fill="#CED3D4"/>
<path d="M178.001 194.149C186.622 194.087 195.243 194.085 203.864 194.144C204.83 198.017 203.967 205.776 204.102 209.824C197.225 209.39 189.964 210.138 182.601 209.486C181.188 203.908 179.333 199.296 178.001 194.149Z" fill="#CED3D4"/>
<path d="M251.023 113.028C259.116 112.958 267.21 112.944 275.304 112.986C275.328 118.17 275.3 123.353 275.22 128.536C271.825 129.246 260.401 128.556 255.957 128.861C254.365 124.102 252.601 117.318 251.023 113.028Z" fill="#58585B"/>
<path d="M700.709 224.463L712.277 224.455C712.284 229.561 712.392 235.052 712.258 240.128C694.752 240.717 676.896 239.966 659.357 240.228C656.578 240.269 653.713 240.107 650.945 240.223L650.918 234.132C651.395 236.232 652.072 238.853 654.788 238.935C660.689 239.112 666.627 239.03 672.536 239.028L709.817 239.005C711.142 234.79 710.632 229.632 709.985 225.341C707.763 224.939 701.542 225.07 700.709 224.463Z" fill="#CED3D4"/>
<path d="M203.864 194.144C204.941 194.177 205.343 193.981 205.998 194.556C206.295 197.335 206.702 206.934 205.738 209.212C205.108 209.774 204.954 209.76 204.102 209.824C203.967 205.776 204.83 198.017 203.864 194.144Z" fill="#CED3D4"/>
<path d="M344.689 -1.2063H365.75L365.701 33.161C376.304 33.3694 393.862 36.0079 389.565 19.0079C384.33 13.1234 379.02 13.4283 371.495 13.9995C373.049 8.75021 374.879 4.14911 376.133 -1.2063H388.784C390.983 0.04542 394.982 0.922917 397.46 2.11451C417.106 11.556 414.289 36.2795 395.738 45.01C396.627 47.753 400.236 52.4352 401.802 55.0075C405.326 60.7915 410.55 67.8128 413.578 73.708L413.381 74.2437C410.185 74.7834 394.856 74.5632 390.953 74.5093C388.918 69.7103 377.848 52.7179 374.887 48.1005C371.575 47.7984 369.532 48.2563 365.795 47.669C365.452 56.1841 365.761 65.7921 365.639 74.4922C358.877 74.4989 351.228 74.3374 344.537 74.6555C345.407 50.1073 344.015 23.6364 344.689 -1.2063Z" fill="#58585B"/>
<path d="M268.239 -1.2063H289.301C288.988 14.3255 289.3 29.9448 289.232 45.4828C289.209 50.7557 290.105 52.0502 292.83 56.4013C297.904 59.2195 302.086 60.9076 307.925 59.3058C319.397 56.1588 316.685 43.0043 316.933 34.0311C317.256 22.3568 316.443 10.4071 317 -1.2063H337.694C337.482 10.1385 337.738 21.5886 337.613 32.9411C337.388 39.5734 338.261 46.3436 336.887 52.8768C333.486 69.0396 318.456 75.6487 303.249 75.7483C287.785 75.8499 271.738 70.8824 268.931 53.6222C267.765 46.4537 268.204 39.1092 268.219 31.8613L268.239 -1.2063Z" fill="#58585B"/>
<path d="M75.3765 -1.2063H96.1336L96.0305 31.4022C96.0257 37.2987 96.0432 42.3961 96.371 48.4933C97.1289 62.6027 119.633 63.5688 122.943 51.6916C124.754 45.1979 123.269 33.3664 123.806 26.4274C123.394 18.054 124.637 6.66876 123.669 -1.2063H144.465C143.897 14.3167 144.872 30.3933 144.435 45.9668C144.207 54.1092 142.247 60.7391 136.311 66.5484C123.808 78.7852 93.874 79.1349 81.8747 66.4539C79.255 63.7191 77.4028 60.3418 76.5058 56.6628C74.6488 49.0516 75.2526 35.4235 75.2251 26.9217C75.1961 17.8814 75.1031 7.74559 75.3765 -1.2063Z" fill="#58585B"/>
<path d="M0 82.3173C6.12409 82.2704 15.3888 81.9557 21.3143 82.4415C25.8939 99.7902 33.1056 117.758 37.3041 135.055C39.3799 130.428 40.5605 125.456 42.1079 120.615L50.1629 95.1508C51.1381 91.9889 53.0844 85.0659 54.3301 82.4106C60.1541 82.0911 68.609 82.1722 74.4766 82.4084C70.5311 94.2569 66.188 105.759 61.9839 117.469L47.7913 157.628C41.465 157.753 31.8122 158.017 25.6773 157.477C24.9032 154.566 24.0733 151.68 23.0657 148.84C15.6692 127.998 8.47319 107.084 1.37754 86.1376C1.09823 85.3129 0.568899 84.5023 0 83.851V82.3173Z" fill="#58585B"/>
<path d="M0 -1.2063H21.2569C21.1664 7.54337 21.1851 16.2939 21.3132 25.0431L39.3918 6.90378C41.2165 5.08477 46.1948 0.499849 47.4955 -1.2063H71.6403C69.1016 2.46062 62.2235 8.49417 58.7905 11.9209C51.0648 19.6327 43.2119 27.4838 35.4537 35.1357C32.7263 37.8255 23.2948 46.7888 21.3246 49.3529C21.0009 57.6966 21.271 66.1321 21.1418 74.4854C17.5193 74.5189 2.8825 74.8816 0 74.4337V-1.2063Z" fill="#58585B"/>
<path d="M54.5864 246.669C61.1256 246.149 68.7478 246.478 75.3498 246.642C71.4766 253.487 49.3216 289.068 48.5931 292.972C47.9148 296.606 48.2025 300.578 48.2162 304.263C48.2389 310.364 48.3304 316.473 48.086 322.571L27.4531 322.48C27.3054 316.738 27.2696 310.993 27.3455 305.249C27.3575 303.445 27.5103 293.786 27.0061 292.731C24.3847 287.241 19.4604 279.039 16.1755 274.108C13.442 270.005 2.3629 249.219 0 247.56V246.585C4.11201 246.497 19.7494 245.327 22.105 247.6C24.657 250.064 36.4537 272.28 38.4512 276.7C40.8995 270.695 44.7132 264.658 47.7563 258.828C49.066 256.319 53.0416 248.583 54.5864 246.669Z" fill="#CED3D4"/>
<path d="M151.247 -1.2063H172.496C172.104 5.73887 172.394 15.3665 172.398 22.4716C172.492 39.8398 172.456 57.2086 172.29 74.5762C168.523 74.1771 155.411 74.5338 151.134 74.6108C151.549 67.2228 151.221 56.5873 151.22 49.0025L151.247 -1.2063Z" fill="#58585B"/>
<path d="M194.968 -1.2063H262.668C262.613 3.99106 262.602 9.18882 262.633 14.3864L219.459 14.378C211.571 14.3809 202.654 14.5994 194.865 14.1028C195.194 10.3683 194.966 2.80859 194.968 -1.2063Z" fill="#58585B"/>
<path d="M0 164.526L65.0695 164.547C63.8071 167.699 66.534 175.475 63.9782 179.059C60.4834 180.197 47.1101 178.609 45.9086 180.072C42.7658 180.412 30.2095 180.331 26.4878 180.266C19.0337 180.136 7.01472 180.781 0 180.079V164.526Z" fill="#CED3D4"/>
<path d="M65.0696 164.547C65.4044 164.578 66.3127 164.591 66.4053 164.78C67.5665 167.153 67.0021 177.818 66.7353 180.277C63.8696 180.282 47.9417 180.461 45.9087 180.072C47.1101 178.609 60.4834 180.197 63.9783 179.059C66.534 175.475 63.8071 167.7 65.0696 164.547Z" fill="#CED3D4"/>
</g>
<defs>
<clipPath id="clip0_601_5459">
<rect width="762" height="324" fill="white"/>
</clipPath>
</defs>
</svg>
